<svg width="291" height="128" viewBox="0 0 291 128" fill="none" xmlns="http://www.w3.org/2000/svg">
    <path d="M0.444252 6.88766L0.182137 127.235L289.928 127.583L290.14 30.0796C283.87 22.4575 269.79 6.20938 263.627 2.19398C255.922 -2.82527 253.323 10.0907 240.421 30.0198C230.099 45.9632 218.404 36.6416 213.846 29.9879L191.584 18.0975C186.998 24.4078 176.461 34.2002 171 22.887C165.538 11.5738 152.174 7.6237 146.174 7.06281C138.839 11.803 121.711 22.9997 111.882 29.8654C99.5949 38.4474 95.6805 28.9862 85.0569 17.9695C74.4332 6.95276 62.8309 20.1779 55.6497 22.7484C48.4685 25.3188 41.3203 12.7588 39.7064 9.83394C38.0925 6.90908 28.594 10.6803 23.735 9.81475C19.8478 9.12233 18.4371 0.393483 12.9825 0.837036L0.444252 6.88766Z" fill="url(#paint0_linear_6_417)"/>
    <defs>
        <linearGradient id="paint0_linear_6_417" x1="145.33" y1="0.97002" x2="145.178" y2="127.409" gradientUnits="userSpaceOnUse">
            <stop/>
            <stop offset="1" stop-color="#B1B9F8" stop-opacity="0"/>
        </linearGradient>
    </defs>
</svg>
