<svg width="142" height="143" viewBox="0 0 142 143" fill="none" xmlns="http://www.w3.org/2000/svg">
<path fill-rule="evenodd" clip-rule="evenodd" d="M124.232 74.1348C122.776 74.0597 121.664 72.8181 121.664 71.3602C121.664 69.9024 122.776 68.6608 124.232 68.5857L129.81 68.298C131.592 68.2062 133.119 69.5764 133.119 71.3602C133.119 73.1441 131.592 74.5143 129.81 74.4224L124.232 74.1348ZM114.917 46.1514C115.647 47.413 117.232 47.9353 118.53 47.2725L123.497 44.7369C125.09 43.9233 125.728 41.9624 124.832 40.4138C123.935 38.8651 121.923 38.4489 120.424 39.4248L115.75 42.4662C114.528 43.2612 114.187 44.8898 114.917 46.1514ZM96.4694 27.7041C97.731 28.4342 99.3595 28.0928 100.155 26.8711L103.196 22.1972C104.172 20.6975 103.756 18.6854 102.207 17.7892C100.658 16.8931 98.6975 17.5303 97.8839 19.1239L95.3483 24.0904C94.6855 25.3886 95.2078 26.974 96.4694 27.7041ZM71.2605 20.9569C72.7184 20.9569 73.96 19.8445 74.0351 18.3885L74.3227 12.8103C74.4146 11.0288 73.0444 9.50156 71.2605 9.50156C69.4767 9.50156 68.1065 11.0288 68.1983 12.8103L68.486 18.3885C68.5611 19.8445 69.8027 20.9569 71.2605 20.9569ZM46.0517 27.7041C47.3133 26.974 47.8356 25.3886 47.1728 24.0904L44.6372 19.1239C43.8236 17.5303 41.8627 16.8931 40.3141 17.7893C38.7654 18.6854 38.3492 20.6975 39.3251 22.1972L42.3665 26.8711C43.1615 28.0928 44.7901 28.4342 46.0517 27.7041ZM27.6044 46.1514C28.3345 44.8898 27.9931 43.2613 26.7714 42.4662L22.0975 39.4248C20.5978 38.4489 18.5857 38.8651 17.6895 40.4138C16.7934 41.9624 17.4306 43.9233 19.0242 44.7369L23.9907 47.2725C25.2889 47.9353 26.8743 47.413 27.6044 46.1514ZM18.2888 68.5857C19.7448 68.6608 20.8572 69.9024 20.8572 71.3602C20.8572 72.8181 19.7448 74.0597 18.2888 74.1348L12.7106 74.4224C10.9291 74.5143 9.40186 73.1441 9.40186 71.3602C9.40186 69.5764 10.9291 68.2062 12.7106 68.298L18.2888 68.5857ZM27.6044 96.5691C26.8743 95.3075 25.2889 94.7852 23.9907 95.448L19.0242 97.9836C17.4306 98.7972 16.7934 100.758 17.6895 102.307C18.5857 103.855 20.5978 104.272 22.0975 103.296L26.7714 100.254C27.9931 99.4592 28.3345 97.8307 27.6044 96.5691ZM46.0517 115.016C44.7901 114.286 43.1616 114.628 42.3665 115.849L39.3251 120.523C38.3492 122.023 38.7654 124.035 40.3141 124.931C41.8627 125.827 43.8236 125.19 44.6372 123.597L47.1728 118.63C47.8356 117.332 47.3133 115.746 46.0517 115.016ZM71.2605 121.764C69.8027 121.764 68.5611 122.876 68.486 124.332L68.1983 129.91C68.1065 131.692 69.4767 133.219 71.2605 133.219C73.0444 133.219 74.4146 131.692 74.3228 129.91L74.0351 124.332C73.96 122.876 72.7184 121.764 71.2605 121.764ZM96.4694 115.016C95.2078 115.746 94.6855 117.332 95.3483 118.63L97.8839 123.597C98.6975 125.19 100.658 125.827 102.207 124.931C103.756 124.035 104.172 122.023 103.196 120.523L100.155 115.849C99.3596 114.628 97.731 114.286 96.4694 115.016ZM114.917 96.5691C114.187 97.8307 114.528 99.4592 115.75 100.254L120.424 103.296C121.923 104.272 123.935 103.855 124.832 102.307C125.728 100.758 125.09 98.7972 123.497 97.9836L118.53 95.448C117.232 94.7852 115.647 95.3075 114.917 96.5691Z" fill="#FFD400"/>
<path d="M113.645 71.3602C113.645 94.7687 94.669 113.745 71.2606 113.745C47.8522 113.745 28.876 94.7687 28.876 71.3602C28.876 47.9518 47.8522 28.9756 71.2606 28.9756C94.669 28.9756 113.645 47.9518 113.645 71.3602Z" fill="#FFD400"/>
</svg>
