<svg width="60" height="60" viewBox="0 0 60 60" fill="none" xmlns="http://www.w3.org/2000/svg">
    <path d="M32.9436 41.4086V4.94776C32.9436 2.21964 30.7241 0 27.9959 0C25.2675 0 23.0481 2.21964 23.0481 4.94776V41.4086C19.9554 43.1773 18.0506 46.4196 18.0377 50.0054C18.0285 52.5788 19.0315 55.0398 20.8615 56.935C22.6925 58.8309 25.1172 59.9177 27.6889 59.9953C27.7927 59.9984 27.8959 60 27.9993 60C30.604 59.9999 33.0547 59.0085 34.93 57.189C36.8802 55.2966 37.9541 52.7583 37.9541 50.0415C37.954 46.4403 36.049 43.1841 32.9436 41.4086ZM33.6216 55.8404C32.04 57.375 29.9517 58.1845 27.7456 58.117C25.6666 58.0545 23.7018 57.1711 22.2132 55.6296C20.7248 54.0884 19.9091 52.0934 19.9166 50.012C19.9275 46.9439 21.6478 44.1851 24.4061 42.8123C24.7253 42.6535 24.9269 42.3276 24.9269 41.9712V4.94776C24.9269 3.25558 26.3036 1.87886 27.9958 1.87886C29.6879 1.87886 31.0647 3.25558 31.0647 4.94776V41.9713C31.0647 42.3278 31.2663 42.6535 31.5854 42.8124C34.3548 44.1907 36.075 46.9608 36.075 50.0415C36.0751 52.2457 35.2038 54.3052 33.6216 55.8404Z" fill="black"/>
    <path d="M28.9353 44.1666V10.9603C28.9353 10.4415 28.5148 10.0208 27.9958 10.0208C27.4771 10.0208 27.0564 10.4414 27.0564 10.9603V44.1666C24.2204 44.6183 22.0459 47.0806 22.0459 50.0415C22.0459 53.3222 24.7151 55.9914 27.9957 55.9914C31.2764 55.9914 33.9456 53.3222 33.9456 50.0415C33.9458 47.0806 31.7713 44.6183 28.9353 44.1666ZM27.996 54.1125C25.7512 54.1125 23.925 52.2863 23.925 50.0415C23.925 47.7968 25.7512 45.9706 27.996 45.9706C30.2407 45.9706 32.0669 47.7968 32.0669 50.0415C32.0669 52.2863 30.2407 54.1125 27.996 54.1125Z" fill="black"/>
    <path d="M41.0227 30.0625H36.0122C35.4935 30.0625 35.0728 30.4831 35.0728 31.002C35.0728 31.5209 35.4933 31.9415 36.0122 31.9415H41.0227C41.5415 31.9415 41.9622 31.5209 41.9622 31.002C41.9622 30.4831 41.5417 30.0625 41.0227 30.0625Z" fill="black"/>
    <path d="M39.0189 25.0521H36.0127C35.4939 25.0521 35.0732 25.4726 35.0732 25.9915C35.0732 26.5103 35.4938 26.931 36.0127 26.931H39.0189C39.5377 26.931 39.9584 26.5105 39.9584 25.9915C39.9584 25.4728 39.5377 25.0521 39.0189 25.0521Z" fill="black"/>
    <path d="M41.0227 20.0417H36.0122C35.4935 20.0417 35.0728 20.4623 35.0728 20.9812C35.0728 21.5 35.4933 21.9207 36.0122 21.9207H41.0227C41.5415 21.9207 41.9622 21.5001 41.9622 20.9812C41.9622 20.4623 41.5417 20.0417 41.0227 20.0417Z" fill="black"/>
    <path d="M39.0189 15.0313H36.0127C35.4939 15.0313 35.0732 15.4518 35.0732 15.9708C35.0732 16.4895 35.4938 16.9102 36.0127 16.9102H39.0189C39.5377 16.9102 39.9584 16.4897 39.9584 15.9708C39.9584 15.4518 39.5377 15.0313 39.0189 15.0313Z" fill="black"/>
    <path d="M41.0227 10.0208H36.0122C35.4935 10.0208 35.0728 10.4414 35.0728 10.9603C35.0728 11.4791 35.4933 11.8998 36.0122 11.8998H41.0227C41.5415 11.8998 41.9622 11.4792 41.9622 10.9603C41.9622 10.4415 41.5416 10.0208 41.0227 10.0208Z" fill="black"/>
</svg>
