<svg width="66" height="66" viewBox="0 0 66 66" fill="none" xmlns="http://www.w3.org/2000/svg">
    <path d="M27.626 17.0013L19.0526 12.0513C18.7082 11.852 18.284 11.8552 17.9417 12.0577L9.25486 17.2036C8.73229 17.513 8.55943 18.1881 8.86907 18.7107C9.07426 19.0572 9.44054 19.2501 9.81671 19.2501C10.0075 19.2501 10.2001 19.2006 10.3764 19.0964L18.5097 14.2787L26.526 18.907C27.0518 19.21 27.7243 19.0294 28.0288 18.5041C28.3326 17.9778 28.1525 17.3054 27.626 17.0013Z" fill="black"/>
    <path d="M61.829 13.8971L47.9928 5.90863C48.054 5.59818 48.0898 5.27812 48.0898 4.94977C48.0895 2.22041 45.8694 0 43.1397 0C40.4101 0 38.1897 2.22041 38.1897 4.95004C38.1897 7.67967 40.4101 9.90008 43.1397 9.90008C44.7507 9.90008 46.1705 9.11488 47.0751 7.91958L60.1787 15.4849V30.7152L46.9896 38.33L33.8002 30.7152V14.8501C33.8002 14.4699 33.5955 14.1518 33.3024 13.954C33.2768 13.9361 33.2559 13.9132 33.2287 13.8974L33.1566 13.8557C33.1437 13.8501 33.1338 13.8405 33.121 13.8352L18.9394 5.64707C18.5987 5.45044 18.1798 5.45044 17.8394 5.64707L3.55009 13.8971C3.20946 14.0938 3 14.4569 3 14.8499V31.35C3 31.7433 3.20946 32.1063 3.55009 32.3027L17.3 40.2415V56.65C17.3 57.0433 17.5095 57.4064 17.8501 57.6027L32.1395 65.8528C32.3096 65.9511 32.4993 66 32.6896 66C32.8798 66 33.0692 65.9511 33.2396 65.8528L46.5247 58.1825C47.3922 58.9308 48.5068 59.4 49.7398 59.4C52.4694 59.4 54.6898 57.1795 54.6898 54.4499C54.6898 51.7203 52.4694 49.4999 49.7398 49.4999C47.0102 49.4999 44.7897 51.7203 44.7897 54.4499C44.7897 55.1459 44.9372 55.8068 45.1974 56.4082L32.6898 63.6297L19.5007 56.0152V40.2292L32.6898 32.6142L46.4398 40.553C46.6099 40.6514 46.7996 40.7002 46.9898 40.7002C47.1798 40.7002 47.3695 40.6514 47.5399 40.553L61.8293 32.303C62.1699 32.1063 62.3794 31.7433 62.3794 31.3503V14.8501C62.3786 14.4569 62.1691 14.0938 61.829 13.8971ZM43.1397 7.69997C41.6236 7.69997 40.3898 6.4662 40.3898 4.95004C40.3898 3.43388 41.6236 2.20011 43.1397 2.20011C44.6559 2.20011 45.8897 3.43388 45.8897 4.95004C45.8897 6.4662 44.6559 7.69997 43.1397 7.69997ZM49.7395 51.7C51.2557 51.7 52.4894 52.9337 52.4894 54.4499C52.4894 55.9661 51.2557 57.1998 49.7395 57.1998C49.1061 57.1998 48.5293 56.976 48.0638 56.6145C48.0585 56.4387 48.0256 56.2629 47.9316 56.0999C47.7756 55.8306 47.522 55.6551 47.2418 55.5854C47.0831 55.2383 46.9893 54.8557 46.9893 54.4499C46.9893 52.9337 48.2231 51.7 49.7395 51.7ZM18.3895 38.33L5.20011 30.7152V15.4849L18.3893 7.87016L31.5787 15.4849L31.5789 30.7152L18.3895 38.33Z" fill="black"/>
</svg>
